Coordinates
version=1
nRows=11
nColumns=40
inDegrees=yes

Units are S.I. units (second, meters, Newtons, ...)
If the header above contains a line with 'inDegrees', this indicates whether rotational values are in degrees (yes) or radians (no).

endheader
time	pelvis_tilt	pelvis_list	pelvis_rotation	pelvis_tx	pelvis_ty	pelvis_tz	hip_flexion_r	hip_adduction_r	hip_rotation_r	knee_angle_r	knee_angle_r_beta	ankle_angle_r	subtalar_angle_r	mtp_angle_r	hip_flexion_l	hip_adduction_l	hip_rotation_l	knee_angle_l	knee_angle_l_beta	ankle_angle_l	subtalar_angle_l	mtp_angle_l	lumbar_extension	lumbar_bending	lumbar_rotation	arm_flex_r	arm_add_r	arm_rot_r	elbow_flex_r	pro_sup_r	wrist_flex_r	wrist_dev_r	arm_flex_l	arm_add_l	arm_rot_l	elbow_flex_l	pro_sup_l	wrist_flex_l	wrist_dev_l
      0.13000000	     -2.90295140	     -6.56364541	      4.51969712	     -0.04236106	      0.86831223	     -0.29012642	     33.31580280	      4.60158755	    -11.03718368	     26.71369983	      0.46624202	     -3.61518733	      0.00000000	      0.00000000	     -7.09932825	    -11.96504328	     -8.03090502	     41.93805391	      0.73195712	     -6.21008012	      0.00000000	      0.00000000	    -11.10433357	      9.94204337	    -14.69916521	    -11.67521733	     -9.86291414	    -18.32938679	     40.87021259	     85.73787053	     33.71000497	     30.35797545	      5.39807619	    -17.42233873	     -8.37094612	     63.32459389	     89.35514459	     24.84620625	     13.70706765
      0.14000000	     -2.91615822	     -7.67125361	      4.32608103	     -0.02641340	      0.86882862	     -0.28785411	     32.85223425	      5.92514385	    -11.27640192	     27.61899347	      0.48204237	     -2.91060883	      0.00000000	      0.00000000	     -5.61251957	    -13.87994745	     -8.51774612	     45.20045022	      0.78889668	     -7.88781615	      0.00000000	      0.00000000	    -11.07002373	     11.04468308	    -13.79437655	    -11.59035466	    -10.04520449	    -18.03908399	     41.08987525	     85.66996843	     33.86175749	     30.41525624	      5.32494788	    -16.93998763	     -8.36414684	     63.28164117	     89.35300155	     24.86305723	     13.59121173
      0.15000000	     -3.00533071	     -8.76429346	      4.28960272	     -0.01085732	      0.86945026	     -0.28572904	     32.33595567	      7.16747885	    -11.69511418	     28.24678080	      0.49299933	     -2.09066985	      0.00000000	      0.00000000	     -3.81219802	    -15.71953471	     -8.47570062	     48.44870278	      0.84558938	     -8.81112286	      0.00000000	      0.00000000	    -10.92775239	     12.10323145	    -13.01445493	    -11.42156905	    -10.20163848	    -17.66149660	     41.30909405	     85.59259150	     33.89782702	     30.56502536	      5.26439009	    -16.49349075	     -8.24094865	     63.11502668	     89.34915312	     24.78439475	     13.32734013
      0.16000000	     -2.82270162	     -9.44095325	      4.13685493	      0.00423758	      0.87095424	     -0.28343150	     31.42625307	      8.16550735	    -11.68490171	     28.75766382	      0.50191592	     -0.92460596	      0.00000000	      0.00000000	     -2.30803468	    -16.95384718	     -8.23971172	     51.35058599	      0.89623680	     -9.39950233	      0.00000000	      0.00000000	    -11.24935569	     12.65958170	    -12.09124784	    -11.04969529	    -10.27475260	    -17.24998334	     41.47986191	     85.64912208	     33.94221474	     30.65653618	      5.20161092	    -16.12328033	     -8.18311578	     63.17129672	     89.34866407	     24.69532747	     13.13217462
      0.17000000	     -3.00813318	    -10.41044491	      4.26729509	      0.01924187	      0.87189807	     -0.28168249	     30.73523020	      9.24105454	    -12.32547794	     28.83354883	      0.50324036	      0.21708691	      0.00000000	      0.00000000	     -0.05834177	    -18.44095037	     -7.51232970	     54.37178751	      0.94896671	     -9.01213526	      0.00000000	      0.00000000	    -10.95338976	     13.56916155	    -11.50471400	    -10.76323797	    -10.44879979	    -16.72626742	     41.87109587	     85.63370588	     33.93307799	     30.75664142	      5.04766393	    -15.67735656	     -8.02524920	     62.86089341	     89.34293246	     24.48581000	     12.81422736
      0.18000000	     -3.12488344	    -11.05878740	      4.45966553	      0.03363398	      0.87339280	     -0.28010679	     29.88825938	     10.01745818	    -12.77811809	     28.75978711	      0.50195298	      1.20710994	      0.00000000	      0.00000000	      2.27596252	    -19.36450797	     -6.41034615	     57.17445724	      0.99788253	     -8.10731072	      0.00000000	      0.00000000	    -10.76135833	     14.08940807	    -11.01264294	    -10.22602340	    -10.52529535	    -16.23354325	     42.01120337	     85.59546311	     33.87420135	     30.82066148	      4.89731189	    -15.26966301	     -7.90402470	     62.52177378	     89.34146761	     24.11058177	     12.34955531
      0.19000000	     -2.93063060	    -11.18663384	      4.39038384	      0.04754058	      0.87603952	     -0.27811903	     28.57683589	     10.55097807	    -12.49360284	     28.52566424	      0.49786676	      2.19818137	      0.00000000	      0.00000000	      4.08978873	    -19.57326826	     -5.57599212	     59.43421040	      1.03732266	     -7.30178892	      0.00000000	      0.00000000	    -11.14118809	     13.97491784	    -10.20542509	     -9.47953314	    -10.46934868	    -15.85223009	     42.11397103	     85.66640603	     33.90467013	     30.84331094	      4.81243618	    -14.91762615	     -7.91072630	     62.34610977	     89.34313979	     23.92422502	     12.14124067
      0.20000000	     -3.19829745	    -11.65557549	      4.79383982	      0.06149157	      0.87767981	     -0.27706525	     27.67355896	     11.06442360	    -13.24027695	     28.03487013	      0.48930079	      3.35367331	      0.00000000	      0.00000000	      6.82050422	    -19.99045440	     -4.12668646	     61.79702222	      1.07856151	     -5.32911790	      0.00000000	      0.00000000	    -10.69772081	     14.31945854	    -10.02386681	     -8.91665024	    -10.58049478	    -15.20161823	     42.61485108	     85.72218933	     33.92286562	     30.78266022	      4.49523163	    -14.57002699	     -7.75855269	     61.94020610	     89.34053602	     23.48710019	     11.72308550
      0.21000000	     -3.55379328	    -11.79569991	      5.08344937	      0.07488802	      0.87977277	     -0.27592115	     26.79130272	     11.35298574	    -13.49898999	     27.38822497	      0.47801470	      3.99802133	      0.00000000	      0.00000000	      9.64590239	    -19.83076451	     -2.67382988	     63.76726690	      1.11294876	     -3.97138465	      0.00000000	      0.00000000	    -10.22151675	     14.25668710	     -9.95390859	     -7.98469466	    -10.72438411	    -14.05571949	     42.63720126	     85.58278747	     33.26403209	     30.49323213	      4.05955435	    -14.38582086	     -7.03177032	     61.33936235	     89.35428205	     18.62925555	      8.74393064
      0.22000000	     -3.45915616	    -11.48758997	      5.05640444	      0.08810955	      0.88311688	     -0.27426595	     25.26982414	     11.47582664	    -13.06962187	     26.57914654	      0.46389362	      4.61391970	      0.00000000	      0.00000000	     11.59419623	    -19.18187715	     -1.89601619	     65.09216979	      1.13607268	     -2.71117257	      0.00000000	      0.00000000	    -10.48761178	     13.64531925	     -9.20069891	     -7.17741418	    -10.59593240	    -13.82483352	     43.11859514	     85.69271969	     33.34393663	     30.45904784	      3.88625276	    -14.06570184	     -7.01218891	     61.01720188	     89.35623723	     18.57355755	      8.77698612
      0.23000000	     -3.78691068	    -11.51247590	      5.51590524	      0.10128277	      0.88543547	     -0.27367961	     24.20739276	     11.58985348	    -13.56020503	     25.64641866	      0.44761445	      5.25629647	      0.00000000	      0.00000000	     14.34526128	    -18.58849708	     -0.41513800	     66.37798844	      1.15851445	     -0.69782925	      0.00000000	      0.00000000	    -10.00091245	     13.47116525	     -9.05184659	     -6.50437018	    -10.58375897	    -13.56682413	     43.80467882	     85.91349862	     33.61845041	     30.11568550	      3.52582490	    -13.75070469	     -6.80227512	     60.53806158	     89.35352239	     18.44888152	      8.93728716
